<svg width="752" height="193" viewBox="0 0 752 193" fill="none" xmlns="http://www.w3.org/2000/svg">
<g filter="url(#filter0_d_3_14)">
<path d="M200.375 59.1484V47H264.203V59.1484H239.477V127H225.102V59.1484H200.375ZM284.984 128.211C281.182 128.211 277.758 127.534 274.711 126.18C271.69 124.799 269.294 122.768 267.523 120.086C265.779 117.404 264.906 114.096 264.906 110.164C264.906 106.779 265.531 103.979 266.781 101.766C268.031 99.5521 269.737 97.7812 271.898 96.4531C274.06 95.125 276.495 94.1224 279.203 93.4453C281.938 92.7422 284.763 92.2344 287.68 91.9219C291.195 91.5573 294.047 91.2318 296.234 90.9453C298.422 90.6328 300.01 90.1641 301 89.5391C302.016 88.888 302.523 87.8854 302.523 86.5312V86.2969C302.523 83.3542 301.651 81.0755 299.906 79.4609C298.161 77.8464 295.648 77.0391 292.367 77.0391C288.904 77.0391 286.156 77.7943 284.125 79.3047C282.12 80.8151 280.766 82.599 280.063 84.6562L266.859 82.7812C267.901 79.1354 269.62 76.0885 272.016 73.6406C274.411 71.1667 277.341 69.3177 280.805 68.0937C284.268 66.8438 288.096 66.2188 292.289 66.2188C295.18 66.2188 298.057 66.5573 300.922 67.2344C303.786 67.9115 306.404 69.0312 308.773 70.5937C311.143 72.1302 313.044 74.2266 314.477 76.8828C315.935 79.5391 316.664 82.8594 316.664 86.8437V127H303.07V118.758H302.602C301.742 120.424 300.531 121.987 298.969 123.445C297.432 124.878 295.492 126.036 293.148 126.922C290.831 127.781 288.109 128.211 284.984 128.211ZM288.656 117.82C291.495 117.82 293.956 117.26 296.039 116.141C298.122 114.995 299.724 113.484 300.844 111.609C301.99 109.734 302.562 107.69 302.562 105.477V98.4062C302.12 98.7708 301.365 99.1094 300.297 99.4219C299.255 99.7344 298.083 100.008 296.781 100.242C295.479 100.477 294.19 100.685 292.914 100.867C291.638 101.049 290.531 101.206 289.594 101.336C287.484 101.622 285.596 102.091 283.93 102.742C282.263 103.393 280.948 104.305 279.984 105.477C279.021 106.622 278.539 108.107 278.539 109.93C278.539 112.534 279.49 114.5 281.391 115.828C283.292 117.156 285.714 117.82 288.656 117.82ZM345.023 91.8437V127H330.883V67H344.398V77.1953H345.102C346.482 73.8359 348.682 71.1667 351.703 69.1875C354.75 67.2083 358.513 66.2188 362.992 66.2188C367.133 66.2188 370.74 67.1042 373.813 68.875C376.911 70.6458 379.307 73.2109 381 76.5703C382.719 79.9297 383.565 84.0052 383.539 88.7969V127H369.398V90.9844C369.398 86.974 368.357 83.8359 366.273 81.5703C364.216 79.3047 361.365 78.1719 357.719 78.1719C355.245 78.1719 353.044 78.7187 351.117 79.8125C349.216 80.8802 347.719 82.4297 346.625 84.4609C345.557 86.4922 345.023 88.9531 345.023 91.8437ZM424.008 150.75C418.93 150.75 414.568 150.06 410.922 148.68C407.276 147.326 404.346 145.503 402.133 143.211C399.919 140.919 398.383 138.38 397.523 135.594L410.258 132.508C410.831 133.68 411.664 134.839 412.758 135.984C413.852 137.156 415.323 138.12 417.172 138.875C419.047 139.656 421.404 140.047 424.242 140.047C428.253 140.047 431.573 139.07 434.203 137.117C436.833 135.19 438.148 132.013 438.148 127.586V116.219H437.445C436.716 117.677 435.648 119.174 434.242 120.711C432.862 122.247 431.026 123.536 428.734 124.578C426.469 125.62 423.617 126.141 420.18 126.141C415.57 126.141 411.391 125.06 407.641 122.898C403.917 120.711 400.948 117.456 398.734 113.133C396.547 108.784 395.453 103.341 395.453 96.8047C395.453 90.2161 396.547 84.6562 398.734 80.125C400.948 75.5677 403.93 72.1172 407.68 69.7734C411.43 67.4036 415.609 66.2188 420.219 66.2188C423.734 66.2188 426.625 66.8177 428.891 68.0156C431.182 69.1875 433.005 70.6068 434.359 72.2734C435.714 73.9141 436.742 75.4635 437.445 76.9219H438.227V67H452.172V127.977C452.172 133.107 450.948 137.352 448.5 140.711C446.052 144.07 442.706 146.583 438.461 148.25C434.216 149.917 429.398 150.75 424.008 150.75ZM424.125 115.047C427.12 115.047 429.672 114.318 431.781 112.859C433.891 111.401 435.492 109.305 436.586 106.57C437.68 103.836 438.227 100.555 438.227 96.7266C438.227 92.9505 437.68 89.6432 436.586 86.8047C435.518 83.9661 433.93 81.7656 431.82 80.2031C429.737 78.6146 427.172 77.8203 424.125 77.8203C420.974 77.8203 418.344 78.6406 416.234 80.2812C414.125 81.9219 412.536 84.1745 411.469 87.0391C410.401 89.8776 409.867 93.1068 409.867 96.7266C409.867 100.398 410.401 103.615 411.469 106.375C412.563 109.109 414.164 111.245 416.273 112.781C418.409 114.292 421.026 115.047 424.125 115.047ZM466.664 127V67H480.805V127H466.664ZM473.773 58.4844C471.534 58.4844 469.607 57.7422 467.992 56.2578C466.378 54.7474 465.57 52.9375 465.57 50.8281C465.57 48.6927 466.378 46.8828 467.992 45.3984C469.607 43.888 471.534 43.1328 473.773 43.1328C476.039 43.1328 477.966 43.888 479.555 45.3984C481.169 46.8828 481.977 48.6927 481.977 50.8281C481.977 52.9375 481.169 54.7474 479.555 56.2578C477.966 57.7422 476.039 58.4844 473.773 58.4844Z" fill="white"/>
<path d="M495.971 127V47H510.463V114.852H545.697V127H495.971ZM584.213 128.172C578.197 128.172 573.002 126.922 568.627 124.422C564.278 121.896 560.932 118.328 558.588 113.719C556.244 109.083 555.072 103.628 555.072 97.3516C555.072 91.1797 556.244 85.763 558.588 81.1016C560.958 76.4141 564.265 72.7682 568.51 70.1641C572.755 67.5339 577.742 66.2188 583.471 66.2188C587.169 66.2188 590.658 66.8177 593.939 68.0156C597.247 69.1875 600.163 71.0104 602.689 73.4844C605.242 75.9583 607.247 79.1094 608.705 82.9375C610.163 86.7396 610.893 91.2708 610.893 96.5312V100.867H561.713V91.3359H597.338C597.312 88.6276 596.726 86.2187 595.58 84.1094C594.434 81.974 592.833 80.2943 590.775 79.0703C588.744 77.8464 586.374 77.2344 583.666 77.2344C580.775 77.2344 578.236 77.9375 576.049 79.3437C573.861 80.724 572.156 82.5469 570.932 84.8125C569.734 87.0521 569.122 89.513 569.096 92.1953V100.516C569.096 104.005 569.734 107 571.01 109.5C572.286 111.974 574.07 113.875 576.361 115.203C578.653 116.505 581.335 117.156 584.408 117.156C586.465 117.156 588.327 116.87 589.994 116.297C591.661 115.698 593.106 114.826 594.33 113.68C595.554 112.534 596.479 111.115 597.104 109.422L610.307 110.906C609.473 114.396 607.885 117.443 605.541 120.047C603.223 122.625 600.255 124.63 596.635 126.062C593.015 127.469 588.874 128.172 584.213 128.172ZM636.996 91.8437V127H622.855V67H636.371V77.1953H637.074C638.454 73.8359 640.655 71.1667 643.676 69.1875C646.723 67.2083 650.486 66.2188 654.965 66.2188C659.105 66.2188 662.712 67.1042 665.785 68.875C668.884 70.6458 671.28 73.2109 672.973 76.5703C674.691 79.9297 675.538 84.0052 675.512 88.7969V127H661.371V90.9844C661.371 86.974 660.329 83.8359 658.246 81.5703C656.189 79.3047 653.337 78.1719 649.691 78.1719C647.217 78.1719 645.017 78.7187 643.09 79.8125C641.189 80.8802 639.691 82.4297 638.598 84.4609C637.53 86.4922 636.996 88.9531 636.996 91.8437ZM712.152 128.055C707.439 128.055 703.22 126.844 699.496 124.422C695.772 122 692.829 118.484 690.668 113.875C688.507 109.266 687.426 103.667 687.426 97.0781C687.426 90.4115 688.52 84.7865 690.707 80.2031C692.921 75.5937 695.902 72.1172 699.652 69.7734C703.402 67.4036 707.582 66.2188 712.191 66.2188C715.707 66.2188 718.598 66.8177 720.863 68.0156C723.129 69.1875 724.926 70.6068 726.254 72.2734C727.582 73.9141 728.611 75.4635 729.34 76.9219H729.926V47H744.105V127H730.199V117.547H729.34C728.611 119.005 727.556 120.555 726.176 122.195C724.796 123.81 722.973 125.19 720.707 126.336C718.441 127.482 715.59 128.055 712.152 128.055ZM716.098 116.453C719.092 116.453 721.645 115.646 723.754 114.031C725.863 112.391 727.465 110.112 728.559 107.195C729.652 104.279 730.199 100.88 730.199 97C730.199 93.1198 729.652 89.7474 728.559 86.8828C727.491 84.0182 725.902 81.7917 723.793 80.2031C721.71 78.6146 719.145 77.8203 716.098 77.8203C712.947 77.8203 710.316 78.6406 708.207 80.2812C706.098 81.9219 704.509 84.1875 703.441 87.0781C702.374 89.9687 701.84 93.276 701.84 97C701.84 100.75 702.374 104.096 703.441 107.039C704.535 109.956 706.137 112.26 708.246 113.953C710.382 115.62 712.999 116.453 716.098 116.453Z" fill="#EB8347"/>
<path d="M54.4924 111.805L4 111.444L45.6634 0H96.5165L54.4924 111.805Z" fill="url(#paint0_linear_3_14)"/>
<path d="M91.8279 148.592L40.9749 148.231L82.6383 36.7873H133.491L91.8279 148.592Z" fill="url(#paint1_linear_3_14)"/>
<path d="M128.976 184.658L78.4835 184.297L120.147 72.8533H171L128.976 184.658Z" fill="url(#paint2_linear_3_14)"/>
</g>
<defs>
<filter id="filter0_d_3_14" x="0" y="0" width="748.105" height="192.658" filterUnits="userSpaceOnUse" color-interpolation-filters="sRGB">
<feFlood flood-opacity="0" result="BackgroundImageFix"/>
<feColorMatrix in="SourceAlpha" type="matrix" values="0 0 0 0 0 0 0 0 0 0 0 0 0 0 0 0 0 0 127 0" result="hardAlpha"/>
<feOffset dy="4"/>
<feGaussianBlur stdDeviation="2"/>
<feComposite in2="hardAlpha" operator="out"/>
<feColorMatrix type="matrix" values="0 0 0 0 0 0 0 0 0 0 0 0 0 0 0 0 0 0 0.25 0"/>
<feBlend mode="normal" in2="BackgroundImageFix" result="effect1_dropShadow_3_14"/>
<feBlend mode="normal" in="SourceGraphic" in2="effect1_dropShadow_3_14" result="shape"/>
</filter>
<linearGradient id="paint0_linear_3_14" x1="50.2583" y1="0" x2="50.2583" y2="111.805" gradientUnits="userSpaceOnUse">
<stop stop-color="#EB8347"/>
<stop offset="0.995426" stop-color="#76879C"/>
</linearGradient>
<linearGradient id="paint1_linear_3_14" x1="87.2331" y1="36.7873" x2="87.2331" y2="148.592" gradientUnits="userSpaceOnUse">
<stop stop-color="#0D94F3"/>
<stop offset="1" stop-color="#D3448B" stop-opacity="0"/>
</linearGradient>
<linearGradient id="paint2_linear_3_14" x1="124.742" y1="72.8533" x2="124.742" y2="184.658" gradientUnits="userSpaceOnUse">
<stop stop-color="#168BE5"/>
<stop offset="0.660198" stop-color="#EF8141"/>
</linearGradient>
</defs>
</svg>
