<svg width="776" height="193" viewBox="0 0 776 193" fill="none" xmlns="http://www.w3.org/2000/svg">
<g filter="url(#filter0_d_3_14)">
<path d="M198.969 64.5V47H268.5V64.5H244.438V127H223.031V64.5H198.969ZM285.541 127.938C281.713 127.938 278.327 127.313 275.385 126.062C272.468 124.786 270.176 122.859 268.51 120.281C266.843 117.703 266.01 114.422 266.01 110.437C266.01 107.156 266.57 104.357 267.689 102.039C268.809 99.6953 270.372 97.7812 272.377 96.2969C274.382 94.8125 276.713 93.6797 279.369 92.8984C282.051 92.1172 284.942 91.6094 288.041 91.375C291.4 91.1146 294.096 90.8021 296.127 90.4375C298.184 90.0469 299.669 89.513 300.58 88.8359C301.492 88.1328 301.947 87.2083 301.947 86.0625V85.9062C301.947 84.3437 301.348 83.1458 300.15 82.3125C298.952 81.4792 297.416 81.0625 295.541 81.0625C293.484 81.0625 291.804 81.5182 290.502 82.4297C289.226 83.3151 288.458 84.6823 288.197 86.5312H268.354C268.614 82.8854 269.773 79.526 271.83 76.4531C273.913 73.3542 276.947 70.8802 280.932 69.0313C284.916 67.1563 289.89 66.2188 295.854 66.2188C300.15 66.2188 304.005 66.7266 307.416 67.7422C310.827 68.7318 313.731 70.125 316.127 71.9219C318.523 73.6927 320.346 75.776 321.596 78.1719C322.872 80.5417 323.51 83.1198 323.51 85.9062V127H303.354V118.562H302.885C301.687 120.802 300.229 122.612 298.51 123.992C296.817 125.372 294.877 126.375 292.689 127C290.528 127.625 288.145 127.938 285.541 127.938ZM292.572 114.344C294.213 114.344 295.749 114.005 297.182 113.328C298.64 112.651 299.825 111.674 300.736 110.398C301.648 109.122 302.104 107.573 302.104 105.75V100.75C301.531 100.984 300.919 101.206 300.268 101.414C299.643 101.622 298.965 101.818 298.236 102C297.533 102.182 296.778 102.352 295.971 102.508C295.189 102.664 294.369 102.807 293.51 102.938C291.843 103.198 290.476 103.628 289.408 104.227C288.367 104.799 287.585 105.516 287.064 106.375C286.57 107.208 286.322 108.146 286.322 109.187C286.322 110.854 286.908 112.13 288.08 113.016C289.252 113.901 290.749 114.344 292.572 114.344ZM355.375 93.25V127H333.813V67H354.281V78.4062H354.906C356.208 74.6042 358.5 71.6224 361.781 69.4609C365.089 67.2995 368.943 66.2188 373.344 66.2188C377.589 66.2188 381.273 67.1953 384.398 69.1484C387.549 71.0755 389.984 73.7318 391.703 77.1172C393.448 80.5026 394.307 84.3698 394.281 88.7187V127H372.719V93.25C372.745 90.2812 371.99 87.9505 370.453 86.2578C368.943 84.5651 366.833 83.7188 364.125 83.7188C362.354 83.7188 360.805 84.1094 359.477 84.8906C358.174 85.6458 357.172 86.7396 356.469 88.1719C355.766 89.5781 355.401 91.2708 355.375 93.25ZM433.832 150.75C427.816 150.75 422.66 149.891 418.363 148.172C414.092 146.479 410.772 144.135 408.402 141.141C406.059 138.172 404.743 134.76 404.457 130.906H425.238C425.447 132.182 425.967 133.211 426.801 133.992C427.634 134.773 428.702 135.333 430.004 135.672C431.332 136.036 432.816 136.219 434.457 136.219C437.243 136.219 439.548 135.542 441.371 134.188C443.22 132.833 444.145 130.385 444.145 126.844V116.688H443.52C442.738 118.719 441.54 120.451 439.926 121.883C438.311 123.289 436.371 124.37 434.105 125.125C431.84 125.854 429.353 126.219 426.645 126.219C422.374 126.219 418.441 125.229 414.848 123.25C411.28 121.271 408.415 118.133 406.254 113.836C404.118 109.539 403.051 103.927 403.051 97C403.051 89.7604 404.171 83.875 406.41 79.3437C408.676 74.8125 411.592 71.4922 415.16 69.3828C418.754 67.2734 422.53 66.2188 426.488 66.2188C429.457 66.2188 432.061 66.7396 434.301 67.7812C436.54 68.7969 438.415 70.1641 439.926 71.8828C441.436 73.5755 442.582 75.4375 443.363 77.4687H443.832V67H465.395V126.844C465.395 131.922 464.079 136.232 461.449 139.773C458.845 143.341 455.173 146.063 450.434 147.938C445.694 149.813 440.16 150.75 433.832 150.75ZM434.613 110.906C436.592 110.906 438.285 110.359 439.691 109.266C441.124 108.146 442.217 106.557 442.973 104.5C443.754 102.417 444.145 99.9167 444.145 97C444.145 94.0312 443.754 91.4922 442.973 89.3828C442.217 87.2474 441.124 85.6198 439.691 84.5C438.285 83.3542 436.592 82.7812 434.613 82.7812C432.634 82.7812 430.941 83.3542 429.535 84.5C428.155 85.6198 427.087 87.2474 426.332 89.3828C425.603 91.4922 425.238 94.0312 425.238 97C425.238 99.9687 425.603 102.495 426.332 104.578C427.087 106.635 428.155 108.211 429.535 109.305C430.941 110.372 432.634 110.906 434.613 110.906ZM476.361 127V67H497.924V127H476.361ZM487.143 60.75C484.226 60.75 481.726 59.7865 479.643 57.8594C477.559 55.9323 476.518 53.6146 476.518 50.9062C476.518 48.1979 477.559 45.8802 479.643 43.9531C481.726 42.026 484.226 41.0625 487.143 41.0625C490.085 41.0625 492.585 42.026 494.643 43.9531C496.726 45.8802 497.768 48.1979 497.768 50.9062C497.768 53.6146 496.726 55.9323 494.643 57.8594C492.585 59.7865 490.085 60.75 487.143 60.75Z" fill="white"/>
<path d="M508.598 127V47H530.316V109.5H562.66V127H508.598ZM600.502 128.094C594.096 128.094 588.575 126.87 583.939 124.422C579.33 121.948 575.775 118.406 573.275 113.797C570.801 109.161 569.564 103.615 569.564 97.1563C569.564 90.9583 570.814 85.5417 573.314 80.9062C575.814 76.2708 579.343 72.6641 583.9 70.0859C588.458 67.5078 593.835 66.2188 600.033 66.2188C604.564 66.2188 608.666 66.9219 612.338 68.3281C616.01 69.7344 619.148 71.7786 621.752 74.4609C624.356 77.1172 626.361 80.3464 627.768 84.1484C629.174 87.9505 629.877 92.2344 629.877 97V102H576.283V90.125H610.033C610.007 88.4062 609.564 86.8958 608.705 85.5937C607.872 84.2656 606.739 83.237 605.307 82.5078C603.9 81.7526 602.299 81.375 600.502 81.375C598.757 81.375 597.156 81.7526 595.697 82.5078C594.239 83.237 593.067 84.2526 592.182 85.5547C591.322 86.8568 590.867 88.3802 590.814 90.125V102.938C590.814 104.865 591.218 106.583 592.025 108.094C592.833 109.604 593.992 110.789 595.502 111.648C597.012 112.508 598.835 112.938 600.971 112.938C602.455 112.938 603.809 112.729 605.033 112.312C606.283 111.896 607.351 111.297 608.236 110.516C609.122 109.708 609.773 108.745 610.189 107.625H629.877C629.2 111.792 627.598 115.411 625.072 118.484C622.546 121.531 619.2 123.901 615.033 125.594C610.893 127.26 606.049 128.094 600.502 128.094ZM660.238 93.25V127H638.676V67H659.145V78.4062H659.77C661.072 74.6042 663.363 71.6224 666.645 69.4609C669.952 67.2995 673.806 66.2188 678.207 66.2188C682.452 66.2188 686.137 67.1953 689.262 69.1484C692.413 71.0755 694.848 73.7318 696.566 77.1172C698.311 80.5026 699.171 84.3698 699.145 88.7187V127H677.582V93.25C677.608 90.2812 676.853 87.9505 675.316 86.2578C673.806 84.5651 671.697 83.7188 668.988 83.7188C667.217 83.7188 665.668 84.1094 664.34 84.8906C663.038 85.6458 662.035 86.7396 661.332 88.1719C660.629 89.5781 660.264 91.2708 660.238 93.25ZM731.508 127.781C727.237 127.781 723.305 126.661 719.711 124.422C716.143 122.182 713.279 118.784 711.117 114.227C708.982 109.669 707.914 103.927 707.914 97C707.914 89.7604 709.034 83.875 711.273 79.3437C713.539 74.8125 716.456 71.4922 720.023 69.3828C723.617 67.2734 727.393 66.2188 731.352 66.2188C734.32 66.2188 736.924 66.7396 739.164 67.7812C741.404 68.7969 743.279 70.1641 744.789 71.8828C746.299 73.5755 747.445 75.4375 748.227 77.4687H748.539V47H770.102V127H748.695V117.156H748.227C747.393 119.187 746.195 121.01 744.633 122.625C743.096 124.214 741.221 125.477 739.008 126.414C736.82 127.326 734.32 127.781 731.508 127.781ZM739.477 111.219C741.456 111.219 743.148 110.646 744.555 109.5C745.987 108.328 747.081 106.687 747.836 104.578C748.617 102.443 749.008 99.9167 749.008 97C749.008 94.0312 748.617 91.4922 747.836 89.3828C747.081 87.2474 745.987 85.6198 744.555 84.5C743.148 83.3542 741.456 82.7812 739.477 82.7812C737.497 82.7812 735.805 83.3542 734.398 84.5C733.018 85.6198 731.951 87.2474 731.195 89.3828C730.466 91.4922 730.102 94.0312 730.102 97C730.102 99.9687 730.466 102.521 731.195 104.656C731.951 106.766 733.018 108.393 734.398 109.539C735.805 110.659 737.497 111.219 739.477 111.219Z" fill="#EB8347"/>
<path d="M54.4924 111.805L4 111.444L45.6634 0H96.5165L54.4924 111.805Z" fill="url(#paint0_linear_3_14)"/>
<path d="M91.8279 148.592L40.9749 148.231L82.6383 36.7873H133.491L91.8279 148.592Z" fill="url(#paint1_linear_3_14)"/>
<path d="M128.976 184.658L78.4835 184.297L120.147 72.8533H171L128.976 184.658Z" fill="url(#paint2_linear_3_14)"/>
</g>
<defs>
<filter id="filter0_d_3_14" x="0" y="0" width="774.102" height="192.658" filterUnits="userSpaceOnUse" color-interpolation-filters="sRGB">
<feFlood flood-opacity="0" result="BackgroundImageFix"/>
<feColorMatrix in="SourceAlpha" type="matrix" values="0 0 0 0 0 0 0 0 0 0 0 0 0 0 0 0 0 0 127 0" result="hardAlpha"/>
<feOffset dy="4"/>
<feGaussianBlur stdDeviation="2"/>
<feComposite in2="hardAlpha" operator="out"/>
<feColorMatrix type="matrix" values="0 0 0 0 0 0 0 0 0 0 0 0 0 0 0 0 0 0 0.25 0"/>
<feBlend mode="normal" in2="BackgroundImageFix" result="effect1_dropShadow_3_14"/>
<feBlend mode="normal" in="SourceGraphic" in2="effect1_dropShadow_3_14" result="shape"/>
</filter>
<linearGradient id="paint0_linear_3_14" x1="50.2583" y1="0" x2="50.2583" y2="111.805" gradientUnits="userSpaceOnUse">
<stop stop-color="#EB8347"/>
<stop offset="0.995426" stop-color="#76879C"/>
</linearGradient>
<linearGradient id="paint1_linear_3_14" x1="87.2331" y1="36.7873" x2="87.2331" y2="148.592" gradientUnits="userSpaceOnUse">
<stop stop-color="#0D94F3"/>
<stop offset="1" stop-color="#D3448B" stop-opacity="0"/>
</linearGradient>
<linearGradient id="paint2_linear_3_14" x1="124.742" y1="72.8533" x2="124.742" y2="184.658" gradientUnits="userSpaceOnUse">
<stop stop-color="#168BE5"/>
<stop offset="0.660198" stop-color="#EF8141"/>
</linearGradient>
</defs>
</svg>
